<?xml version="1.0" encoding="utf-8"?>
<!-- Generator: Adobe Illustrator 25.0.0, SVG Export Plug-In . SVG Version: 6.00 Build 0)  -->
<svg version="1.1" id="Layer_1" xmlns="http://www.w3.org/2000/svg" xmlns:xlink="http://www.w3.org/1999/xlink" x="0px" y="0px"
	 viewBox="0 0 27 27" style="enable-background:new 0 0 27 27;" xml:space="preserve">
<style type="text/css">
	.st0{fill-rule:evenodd;clip-rule:evenodd;fill:#666666;}
</style>
<path class="st0" d="M11.8,8.7L11.8,8.7L11.8,8.7c-0.3,0.3-0.3,0.9-0.1,1.2l3.6,3.6l-3.5,3.6l0,0c-0.3,0.3-0.3,0.9,0,1.2
	s0.9,0.3,1.2,0l4.2-4.2c0.3-0.4,0.3-0.9,0-1.2L13,8.7C12.7,8.4,12.1,8.4,11.8,8.7L11.8,8.7z M13.5,0C6,0,0,6,0,13.5l0,0
	C0,21,6,27,13.5,27S27,21,27,13.5S21,0,13.5,0L13.5,0z M5.4,21.6L5.4,21.6C1,17,1.1,9.7,5.6,5.3C10.2,0.9,17.5,1,21.9,5.5
	s4.4,11.9-0.2,16.3S9.8,26.1,5.4,21.6L5.4,21.6z"/>
</svg>
