<?xml version="1.0" encoding="utf-8"?>
<!-- Generator: Adobe Illustrator 25.0.0, SVG Export Plug-In . SVG Version: 6.00 Build 0)  -->
<svg version="1.1" id="Layer_1" xmlns="http://www.w3.org/2000/svg" xmlns:xlink="http://www.w3.org/1999/xlink" x="0px" y="0px"
	 viewBox="0 0 27 27" style="enable-background:new 0 0 27 27;" xml:space="preserve">
<style type="text/css">
	.st0{fill-rule:evenodd;clip-rule:evenodd;fill:#666666;}
</style>
<path class="st0" d="M15.2,8.7c-0.3-0.3-0.9-0.3-1.2,0l-4.2,4.2c-0.3,0.3-0.3,0.8,0,1.2l4.2,4.2c0.3,0.3,0.9,0.3,1.2,0
	c0.3-0.3,0.3-0.9,0-1.2l0,0l-3.5-3.6l3.6-3.6C15.5,9.6,15.5,9,15.2,8.7C15.2,8.7,15.2,8.7,15.2,8.7L15.2,8.7L15.2,8.7z M13.5,0
	C6,0,0,6,0,13.5S6,27,13.5,27S27,21,27,13.5l0,0C27,6,21,0,13.5,0L13.5,0z M21.6,21.6c-4.4,4.5-11.7,4.6-16.3,0.2S0.7,10,5.1,5.5
	s11.7-4.6,16.3-0.2C25.9,9.7,26,17,21.6,21.6L21.6,21.6L21.6,21.6z"/>
</svg>
